# xmcd CD database file
#
# Track frame offsets:
#	150
#	12520
#	26619
#	47339
#	75193
#	92541
#	114867
#	148677
#
# Disc length: 2258 seconds
#
# Revision: 0
# Processed by: cddbd v1.5.2PL0 Copyright (c) Steve Scherf et al.
# Submitted via: CDex 1.51
#
DISCID=4f08d008
DTITLE=Ken Koshino - Still Standing on the Rock
DYEAR=2005
DGENRE=Jazz
TTITLE0=Kamikaze
TTITLE1=Away
TTITLE2=It's Time
TTITLE3=Little Wing
TTITLE4=Peace Please!
TTITLE5=Jacaranda
TTITLE6=I Wonder if I Love Myself
TTITLE7=Amazing Grace
EXTD=YEAR: 2005
EXTT0=
EXTT1=
EXTT2=
EXTT3=
EXTT4=
EXTT5=
EXTT6=
EXTT7=
PLAYORDER=
